<?xml version="1.0" encoding="UTF-8" standalone="no" ?>
<!DOCTYPE svg PUBLIC "-//W3C//DTD SVG 1.1//EN" "http://www.w3.org/Graphics/SVG/1.1/DTD/svg11.dtd">
<svg xmlns="http://www.w3.org/2000/svg" xmlns:xlink="http://www.w3.org/1999/xlink" version="1.1" width="1080" height="1080" viewBox="0 0 1080 1080" xml:space="preserve">
<desc>Created with Fabric.js 5.2.4</desc>
<defs>
</defs>
<g transform="matrix(1 0 0 1 540 540)" id="64b3052d-3a96-4830-8f3f-d6315b28f482"  >
<rect style="stroke: none; stroke-width: 1; stroke-dasharray: none; stroke-linecap: butt; stroke-dashoffset: 0; stroke-linejoin: miter; stroke-miterlimit: 4; fill: rgb(255,255,255); fill-rule: nonzero; opacity: 1; visibility: hidden;" vector-effect="non-scaling-stroke"  x="-540" y="-540" rx="0" ry="0" width="1080" height="1080" />
</g>
<g transform="matrix(1 0 0 1 540 540)" id="eef3ef60-813f-4a55-8e51-a4981f894783"  >
</g>
<g transform="matrix(1 0 0 1 540 540)" id="8fd90ca0-07fd-430f-9ec7-97c841308021"  >
<path style="stroke: rgb(0,0,0); stroke-width: 0; stroke-dasharray: none; stroke-linecap: butt; stroke-dashoffset: 0; stroke-linejoin: miter; stroke-miterlimit: 4; fill: rgb(101,101,101); fill-rule: nonzero; opacity: 1;" vector-effect="non-scaling-stroke"  transform=" translate(-50, -50)" d="M 50 92.875 C 26.358 92.875 7.125 73.642 7.125 50 C 7.125 26.358000000000004 26.358 7.125 50 7.125 C 73.642 7.125 92.875 26.358 92.875 50 C 92.875 73.642 73.642 92.875 50 92.875 z M 50 9.125 C 27.461 9.125 9.125 27.461 9.125 50 C 9.125 72.538 27.461 90.875 50 90.875 C 72.538 90.875 90.875 72.538 90.875 50 C 90.875 27.461 72.538 9.125 50 9.125 z" stroke-linecap="round" />
</g>
<g transform="matrix(1 0 0 1 540 540)" id="ef063a77-ad23-454e-80aa-c0294f2eb9db"  >
<path style="stroke: rgb(0,0,0); stroke-width: 0; stroke-dasharray: none; stroke-linecap: butt; stroke-dashoffset: 0; stroke-linejoin: miter; stroke-miterlimit: 4; fill: rgb(101,101,101); fill-rule: nonzero; opacity: 1;" vector-effect="non-scaling-stroke"  transform=" translate(-51.25, -50)" d="M 24.878 78.544 C 20 78.544 16.073 74.55499999999999 16.073 69.738 L 16.073 23.093 C 16.073 18.273 20 14.347 24.878 14.347 L 71.465 14.347 C 76.343 14.347 80.271 18.273 80.271 23.093 C 80.09 29.637 63.848 32.016999999999996 52.309 37.074 L 84.73 69.5 C 86.99300000000001 71.759 86.99300000000001 75.44800000000001 84.73 77.712 L 78.48700000000001 83.959 C 76.22300000000001 86.218 72.534 86.218 70.275 83.959 L 38.266000000000005 51.949000000000005 C 33.741 63.134 31.421 77.712 24.878 78.544 z" stroke-linecap="round" />
</g>
</svg>